<?xml version="1.0" encoding="UTF-8"?>
<!-- Created with Inkscape (http://www.inkscape.org/) -->
<svg width="927.68" height="299.84" version="1.1" viewBox="0 0 927.68 299.84" xmlns="http://www.w3.org/2000/svg" xmlns:xlink="http://www.w3.org/1999/xlink">
 <g>
  <path d="m884.18 0.22656c-6.6618 0.071919-13.378 0.13532-20.002 0.70117-1.0225 0.23366-1.8577 0.61464-2.2578 1.2324l35.521-0.32031v-0.91211-0.048828c-4.3703-0.55231-8.8135-0.68467-13.262-0.65234zm28.621 0.013672-5.4394 0.63867h19.52v-0.31836l-14.08-0.32031zm-653.46 0.6875c-85.926 0.14114-171.85 0.26977-257.77 0.27148v1.5195c2.9221 0.26337 5.8884-0.080051 8.8242 0.089844 11.059 0.64002 22.188 0.0024768 33.279 0.31055 38.215 1.0615 76.618 0.32031 114.88 0.32031h161.92c17.769 0 35.631 0.32031 53.439 0.32031 8.6836 0 17.614 0.56566 26.24-0.29297 10.092-1.0046 20.04 0.61328 30.08 0.61328 20.142 0 40.345-0.64062 60.48-0.64062 7.1473 0 14.329-0.32031 21.439-0.32031 1.4637 0 6.4868 0.5107 6.7207-1.2793l43.52 0.95508 87.68 0.0039062 143.68-0.32031 56.32-0.95898v-0.32031c-45.811-0.13261-91.63-0.21821-137.45-0.27148h-453.28zm432.97 0.5918 1.5996 0.32031h-1.5996v-0.32031zm-401.45 7.8379c-2.424-0.046301-4.8455-0.022666-7.1894 0.25391-3.5816 0.4226-7.2745 0.40248-10.879 0.56055-4.1332 0.18125-8.4143 0.68115-12.48 1.4629-0.75067 0.14432-4.3723 0.97633-2.9883 2.3867 1.5784 1.6085 6.7566 0.55068 8.748 0.35156 7.8752-0.78744 15.762-1.0009 23.68-1.0137 2.6069-0.0042 8.6383-1.3719 10.75 0.55859 1.0422 0.95273 0.0559 3.0969-0.18946 4.2422-0.84756 3.9559-2.1197 7.7359-3.5352 11.52-1.9398 5.1851-4.225 10.773-7.3535 15.359-3.928 5.7585-9.0784 10.487-13.66 15.682-2.759 3.1281-7.887 9.856-12.25 10.49-4.5572 0.6625-9.3812-3.988-11.791-7.291-7.3064-10.015-4.5147-25.186-0.17774-35.84 1.5343-3.7688 3.6792-6.7683 5.6445-10.24 0.41576-0.73449 0.47709-2.0229-0.73438-1.8145-1.5032 0.25865-2.63 2.2392-3.3555 3.4141-2.3109 3.7426-3.9563 7.9721-5.2578 12.16-3.8957 12.536-6.7079 28.455 4.1641 38.449 3.3575 3.0864 7.5366 4.8382 12.146 4.377 6.2436-0.62469 10.272-6.0373 14.4-10.186 10.519-10.57 18.642-21.355 22.766-35.84 1.2055-4.2349 2.3436-8.4351 2.9688-12.801 0.22127-1.5452 0.57945-3.9846-0.67969-5.207-1.2927-1.255-3.9026-0.87305-5.5352-0.87305-2.3601 3e-7 -4.787-0.11581-7.2109-0.16211zm-50.715 0.38672c-1.5078-0.016131-3.015 0.015274-4.4746 0.1875-5.9196 0.69846-11.977 0.24652-17.92 0.81445-1.7408 0.16635-5.2648-0.22223-6.3906 1.4688-1.4247 2.1399 0.68969 6.2889 1.7305 8.1855 2.7189 4.9548 6.4081 9.6489 10.74 13.299 1.8883 1.5909 4.1044 3.232 6.7207 2.9199 7.4772-0.89193 12.613-12.253 15.104-18.459 0.59672-1.4872 3.1368-6.0293 2.1543-7.5-0.60041-0.89873-2.2434-0.80719-3.1777-0.81836-1.469-0.017568-2.9785-0.081526-4.4863-0.097656zm264.81 0.55664c-2.0215-0.03645-4.0458 0.04748-5.9277 0.26953-6.3313 0.74706-12.834 1.044-19.201 1.4805-1.7598 0.12062-5.9708-0.38457-7.0254 1.3984-0.60286 1.0193 0.17903 2.1756 0.57227 3.1113 0.85731 2.0399 1.1251 4.2412 1.5293 6.3984 1.7941 9.5751 7.6314 27.778 20.285 26.182 3.2123-0.40525 5.634-3.2953 7.4707-5.7012 4.6042-6.0308 7.8941-13.272 10.99-20.16 1.2273-2.7304 3.7304-7.6239 1.7812-10.541-1.0125-1.5154-2.905-1.7475-4.5625-1.9805-1.8721-0.26315-3.8906-0.42058-5.9121-0.45703zm-352.97 0.28906c-2.5555-0.05644-5.111 0.01636-7.5215 0.30078-4.3277 0.51062-8.765 0.57926-13.119 0.89844-1.1336 0.083093-4.0339-0.08807-4.791 0.84766-1.5498 1.9154 0.57134 7.0907 1.2871 9.043 2.4834 6.7734 8.0048 20.008 16.943 19.143 8.3421-0.80773 14.242-13.538 17.521-20.102 0.92789-1.857 3.7247-6.4198 2.3086-8.502-0.90989-1.3379-3.7122-1.0171-5.1094-1.1523-2.4075-0.23298-4.964-0.42012-7.5195-0.47656zm41.158 0.082031c-1.5051 0.04501-3.3335 1.3776-4.1992 2.0527-4.4557 3.475-8.3325 7.9763-11.721 12.475-3.4795 4.6195-7.4864 8.9431-10.678 13.76-6.9172 10.44-12.417 21.79-18.002 32.961-2.1071 4.2148-7.9203 13.491-5.0117 18.223 2.4461 3.9794 10.743 0.79975 14.051-0.30273 12.543-4.1801 25.402-12.763 39.041-11.465 8.2802 0.78803 16.332 3.1839 24 6.3477 3.9996 1.6503 9.2495 5.0213 13.76 3.6289 7.2724-2.245 5.5234-10.156 2.7812-15.152-6.6213-12.064-18.462-20.427-26.66-31.359-5.0445-6.7265-6.8884-14.351-8.7988-22.4-0.70487-2.9699-1.059-7.267-4.7617-7.6797 3.7434 8.9134 4.2504 18.91 8.7266 27.84 4.3338 8.6454 12.097 15.249 18.381 22.4 3.819 4.3457 7.4893 8.8884 10.092 14.08 0.56895 1.135 2.5554 3.6685 2.2637 4.9355-1.7872 7.7617-12.77 0.90709-16.744-0.5918-11.403-4.3004-24.29-7.7584-36.479-4.6973-12.297 3.0885-23.15 11.315-36.16 11.873 1.3325-6.8712 4.7798-13.231 7.75-19.52 6.898-14.604 15.089-27.801 25.346-40.32 3.6137-4.411 7.1423-9.2753 11.703-12.758 0.72617-0.55449 4.0158-2.6649 2.6699-3.873-0.38202-0.34293-0.84791-0.47203-1.3496-0.45703zm147.06 0.058594c-1.046-0.0099-2.082 0.03535-3.0977 0.16016-7.8116 0.95988-13.602 8.0318-18.424 13.67-12.007 14.04-25.177 31.206-30.963 48.959-1.9533 5.9928-1.7712 13.538 0.2207 19.52 0.83309 2.5017 1.942 5.2743 4.3652 6.6309 1.8942 1.0604 4.6217 0.84828 6.7207 0.70117 8.4976-0.59556 15.647-6.9972 20.592-13.412 4.6477-6.0294 7.7059-13.273 10.867-20.158 4.5143-9.8315 9.1136-19.66 13.73-29.441 2.6643-5.6444 5.5486-11.228 8.0195-16.959 0.78605-1.823 2.4386-4.6644 1.6367-6.7031-0.63782-1.6215-2.8079-1.7706-4.2871-1.9785-3.0185-0.42429-6.2428-0.95857-9.3809-0.98828zm189.93 0.12109c-0.23195 0.002703-0.4659 0.015836-0.70312 0.041016-2.3686 0.25144-7.4983 0.1852-8.8633 2.5098-1.6081 2.7387-1.6027 8.3827-1.3476 11.477 0.10762 1.3054 0.61496 3.0814 2.2148 3.0859 1.6098 0.0045 3.2595-1.424 4.4746-2.3262 3.1807-2.3616 6.922-5.1147 8.6973-8.7598 1.766-3.6262-0.99334-6.0681-4.4727-6.0273zm230.98 0.26758c-15.025 0-29.842 0.54785-44.801 1.5723-4.039 0.2766-8.1404 0.10188-12.16 0.57617-1.0088 0.11904-2.7685-0.25209-3.6016 0.42188-1.0704 0.86596-0.5328 3.5765-0.5625 4.791-0.0994 4.0604-0.66008 8.1575-1.3555 12.16-1.9852 11.427-5.1897 22.656-8.9902 33.6-1.7308 4.9838-5.8577 10.367-5.9707 15.68 4.1138-1.3136 6.4647-5.4359 10.881-6.5664 8.6715-2.2198 20.663-3.197 29.439-1.2207 9.368 2.1096 19.532 7.5519 27.84 12.268 8.1638 4.6342 16.568 8.7351 24.32 14.088 2.0343 1.4046 5.8592 5.5013 8.582 3.5937 2.1486-1.5053 2.9256-5.0018 2.9375-7.4414 0.0288-5.8967-1.6654-11.806-3.7793-17.281-4.5364-11.749-12.598-21.537-17.523-32.959-4.2946-9.9593-5.2263-22.537-5.2559-33.281zm-299.8 0.41211c-1.5941-0.04591-3.4601 0.22852-4.5176 0.22852h-18.881c0.46793 10.893 0.99395 21.801 2.291 32.641 1.6766 14.012 2.6006 27 11.986 38.4 2.863 3.4775 8.2516 10.027 13.559 7.3027 2.7355-1.4044 4.3537-5.7992 6.002-8.2637 7.4527-11.143 4.5359-25.456 1.8184-37.76-1.2156-5.5033-2.5541-11.042-4.5547-16.32-1.3969-3.6853-2.6329-7.4088-3.7148-11.199-0.34492-1.2084-0.57683-3.6861-1.6465-4.4727-0.52677-0.38738-1.3853-0.52909-2.3418-0.55664zm418.64 0.076172c-1.0829-0.042-2.1697-0.026918-3.1465 0.013672-1.3023 0.05413-2.4104 0.15468-3.0527 0.23047-3.8256 0.45139-7.6773 0.07199-11.52 0.24024-11.087 0.48545-22.208 0.80043-33.279 1.5586-3.6041 0.24682-7.2682 0.30859-10.881 0.35156-1.2987 0.01545-3.5355-0.06561-4.4121 1.0605-2.9694 3.8145-4.5855 10.115-6.2832 14.617-6.6907 17.742-8.7749 35.354-5.6504 54.08 0.92619 5.5507 1.9412 11.403 4.0586 16.641 1.3466 3.3311 3.3377 5.6863 7.168 5.4102 7.8853-0.5684 14.7-10.057 19.199-15.65 4.0821-5.0742 7.0325-10.595 10.586-16 8.4294-12.821 16.772-26.342 26.281-38.4 4.0991-5.1981 9.2166-9.3916 13.508-14.4 1.658-1.9353 4.1641-4.26 4.002-7.0371-0.11417-1.9547-3.3293-2.5888-6.5781-2.7148zm-506.62 0.033203c-0.58472 0.02499-1.1287 0.11578-1.5977 0.3125-2.1674 0.90926-3.9214 5.2575-5.1797 7.166-3.5577 5.3964-9.0359 12.102-10.262 18.561-0.52262 2.7534-0.57031 6.1787 1.6562 8.248 3.9547 3.6755 10.583 1.1872 14.365-1.3223 8.0599-5.3469 15.514-12.989 21.32-20.686 2.3881-3.1654 5.2055-6.425 5.2402-10.561-6.6286-0.83772-13.48-1.2793-20.16-1.2793-1.5136 0-3.6286-0.51441-5.3828-0.43945zm214.41 0.16602c-3.192-0.0378-6.3546 0.12285-9.0312 0.91406 1.5277 5.89 3.4304 12.811 6.8359 17.92 2.547 3.8209 6.158 6.8129 9.4844 9.9121 3.9185 3.6509 8.3173 7.5185 13.76 8.498 13.433 2.4177 21.559-11.52 29.469-20.012 2.7943-3 8.4668-8.1063 7.832-12.795-0.24699-1.8244-2.1757-2.313-3.7012-2.6758-3.9184-0.93199-7.8704-0.84488-11.84-1.2227-11.045-1.0512-22.497-0.26562-33.6-0.26562-2.7953 0-6.017-0.23564-9.209-0.27344zm-564.67 0.03125c-3.3107 0.07967-6.587 0.27314-9.8008 0.65234-1.4044 0.1657-3.8824-0.06709-4.9277 1.0508-0.99318 1.062-0.51367 3.5982-0.51367 4.9395 1e-7 4.2014-0.95231 10.266 1.1387 14.08 1.7868 3.2593 6.0012 5.7376 8.7813 8.1348 7.8181 6.7413 18.335 18.055 29.762 16.408 14.085-2.0297 17.633-17.799 20.092-29.344 0.79261-3.7218 3.1126-10.935-0.32031-13.943-3.0413-2.6649-10.567-1.416-14.332-1.416-9.7143 0-19.947-0.8015-29.879-0.5625zm771.67 0.10156c-1.8913-0.12681-3.888 0.08278-5.1562 0.23242-4.1472 0.48934-8.3606 0.34957-12.479 1.1895-1.6839 0.34346-3.7299 0.82908-4.4785 2.5723-0.84672 1.9717-0.36404 4.9983 0.06445 7.0254 1.0977 5.1936 2.9238 10.299 5.2949 15.041 1.1661 2.3322 2.6428 6.0313 5.8379 5.7129 3.5007-0.34891 6.0761-5.6029 7.6816-8.2734 2.9016-4.8264 5.7116-9.9747 7.4395-15.359 0.57929-1.8054 1.5507-4.6301 0.32226-6.3574-0.84894-1.1938-2.636-1.6564-4.5273-1.7832zm-694.5 0.033203c-2.2867 0.0709-4.6138 0.35264-6.0117 0.51758-2.58 0.30441-7.6083-0.44176-9.4062 1.9023-1.0267 1.3387-0.17256 3.4785-0.56445 5.0469-1.4136 5.6573-2.1366 11.146-2.5371 16.961-1.3265 19.262-4.2031 40.094-0.007813 59.199 2.194 9.9914 6.9703 21.973 19.236 20.746 10.814-1.0819 17.04-9.082 21.193-18.186 6.7802-14.862 6.9606-30.422 2.8438-46.08-1.3096-4.9811-3.412-9.5402-4.9902-14.4-2.2229-6.8456-4.4851-12.861-8.7188-18.879-1.3352-1.8978-3.2005-4.9317-5.2637-6.0723-1.241-0.68607-3.4868-0.82676-5.7734-0.75586zm449.89 0.29102c-0.9352 0.01191-1.8634 0.08123-2.7793 0.24219-2.6223 0.46082-3.853 2.5252-5.4941 4.373-2.895 3.2597-5.8242 6.5181-8.9062 9.6016-13.966 13.972-27.425 29.618-38.4 46.08-3.1506 4.7254-7.588 10.343-8.7949 16-0.49867 2.3375-0.50285 5.6823 1.7617 7.084 2.5242 1.5624 6.3134 0.37564 8.6328-0.96484 6.1179-3.5357 11.371-8.7993 17.281-12.732 12.425-8.2679 26.219-13.744 40.639-17.348 7.4557-1.8635 15.423-3.4523 23.041-1.7461 8.9978 2.0152 17.127 9.0422 23.68 15.176 1.663 1.5567 5.6714 7.8785 8.2461 7.3691 1.6537-0.32717 1.0936-4.6097 0.97851-5.7988-0.57773-5.9697-3.6055-11.447-7.3965-16-6.2253-7.4767-13.912-13.752-19.518-21.76-4.365-6.236-7.5965-13.308-11.494-19.84-1.6483-2.7621-3.488-6.662-6.3359-8.3652-1.7308-1.0351-4.7476-0.90334-6.7207-0.91602-2.7506-0.01768-5.6143-0.4908-8.4199-0.45508zm-126.15 0.9043c-2.6703-0.09775-5.4116 0.09259-6.8711 0.28516-5.0982 0.67266-5.2017 7.9714-6.0156 12.066-0.75816 3.8145-1.8091 8.2679-1.248 12.16 0.80574 5.5894 5.7471 12.258 9.8242 15.945 2.0428 1.8473 6.8635 5.5599 9.8848 5.0391 1.47-0.2534 2.2327-2.5108 2.7207-3.7051 1.6741-4.097 2.1133-8.7245 2.1133-13.119 0-6.6318-0.96438-13.277-1.8789-19.84-0.30371-2.1795-0.22058-5.8786-2.0859-7.3945-1.1735-0.95365-3.7731-1.3398-6.4434-1.4375zm503.12 0.19141c-6.6895 0.012567-13.4 0.33465-20.076 0.62695-3.1935 0.13984-6.8977-0.32373-9.9199 0.97266-7.2899 3.127-14.134 11.079-19.201 16.961-3.9681 4.6063-6.9822 9.781-9.3691 15.359-0.99258 2.3197-2.146 5.4077 0.73438 6.8945 1.6936 0.87422 3.708 0.31894 5.4355-0.13672 4.3156-1.1383 8.3876-3.1413 12.48-4.8848 12.39-5.2779 26.358-9.5065 39.916-9.8633v-25.93zm-263.32 0.14258c-1.2515-0.04298-2.4881 0.0061-3.4766 0.37109-1.5195 0.56113-2.4902 2.1897-3.5488 3.3262-2.5248 2.7104-4.9892 5.345-7.2109 8.3203-9.6112 12.871-16.181 29.541-18.402 45.439-0.8636 6.181-1.283 12.339-0.58203 18.561 0.13223 1.1735 0.33196 5.9857 2.2422 5.4121 1.6297-0.4894 3.2201-2.3734 4.4629-3.4766 2.9873-2.6518 5.8688-5.5578 9.2793-7.6738 5.299-3.2877 12.222-3.1315 17.279-6.4551 2.8459-1.8702 4.6398-5.0065 6.6856-7.6465 5.6718-7.3191 9.693-15.133 13.34-23.68 3.2636-7.6481 5.8945-14.938 5.8945-23.359 0-2.2192 0.61187-5.6592-0.6836-7.6074-1.1023-1.6577-4.5988-1.0545-6.3555-1.2617-4.9982-0.58975-10.326-0.091799-15.359-0.091796-1.0457-3e-6 -2.313-0.13476-3.5644-0.17774zm-421.08 0.17774c-0.77496 5.1701-4.8275 10.936-7.5039 15.359-1.0834 1.7903-2.6545 3.8753-4.9766 3.9062-2.2151 0.029492-4.5475-2.2614-6.0801-3.6406-4.8298-4.3466-8.2183-8.9505-10.559-14.984l17.92-0.34961 11.199-0.29102zm269.12 0.32031c-0.17395 8.4341-6.3767 18.245-10.625 25.279-1.5357 2.543-3.9756 6.1859-7.2949 6.3535-3.2497 0.16406-6.5876-2.8391-8.584-5.0723-5.3824-6.0206-9.269-16.878-9.3359-24.961l35.84-1.5996zm-168.83 0.003906c3.5315 0.01593 7.0724 0.57874 9.4668 1.5957-1.2321 3.6125-3.6464 6.8347-5.3613 10.24-3.9594 7.863-7.8489 15.758-11.682 23.68-3.9373 8.1375-7.9544 16.234-11.998 24.32-3.9038 7.8066-9.2454 15.506-16.719 20.258-2.9762 1.8923-9.475 4.5559-12.766 1.9785-2.767-2.1672-3.3977-8.4032-3.541-11.676-0.33307-7.6062 2.9787-14.145 6.3066-20.801 7.1028-14.206 16.67-29.069 27.92-40.32 2.7079-2.7081 5.4767-5.8651 8.9609-7.5918 2.3596-1.1693 5.8806-1.6995 9.4121-1.6836zm-187.27 0.11328c1.4964-0.002502 2.9177 0.19171 3.4473 0.98047 1.1492 1.7117-1.076 5.0699-1.832 6.582-2.1881 4.3762-4.7593 8.8799-8.2148 12.389-1.2572 1.2766-3.0786 3.0815-4.9844 3.1895-2.4703 0.13994-5.0916-2.681-6.5312-4.3789-4.2111-4.9665-7.3828-10.793-9.4688-16.959 6.9578-2.0574 16.432-1.5991 23.68-1.5996 0.83493-5.9e-5 2.408-0.20063 3.9043-0.20312zm601.86 0.52344c0.45648 10.635 2.0314 23.498 6.3555 33.279 4.1692 9.4314 10.878 17.517 15.127 26.881 2.3354 5.1472 3.6156 10.439 4.5156 16 0.24109 1.4895 0.86734 4.6992-0.27149 5.9277-1.5028 1.6211-4.578-0.82736-5.8867-1.6699-5.2891-3.4049-10.541-6.837-16-9.9707-7.5272-4.3212-15.411-7.5963-23.361-11.064-5.1733-2.2567-10.285-5.0153-16-5.5684-10.832-1.0482-21.045 2.2844-31.68 2.5039 0.8575-5.8058 4.0073-11.605 5.625-17.279 3.4156-11.98 5.8945-24.635 5.8945-37.119l55.682-1.9199zm-229.64 0.11133c0.78825 0.03193 1.4528 0.24429 1.7734 0.7207 1.4934 2.2191-5.0791 6.3322-6.6934 6.8477-0.31629-1.7035-0.88665-4.5002 0.23632-6.0078 0.61241-0.82218 2.9494-1.6308 4.6836-1.5605zm355.08 0.20703c-5.3727 7.6269-13.836 12.878-19.363 20.48-8.5258 11.727-16.357 24.536-24.141 36.801-2.4117 3.8004-4.1568 7.9184-6.8574 11.52-3.9349 5.247-8.4406 10.276-13.318 14.666-1.6784 1.5104-4.2638 3.9804-6.7207 3.7949-2.4374-0.18397-3.422-2.7379-4.1426-4.7012-1.8256-4.9741-2.9694-10.141-3.832-15.359-1.9237-11.636-2.8724-24.545-0.33985-36.16 1.0261-4.706 3.2806-9.2299 4.8926-13.76 1.1644-3.2718 2.1308-6.6179 3.207-9.9199 0.41563-1.2753 0.59024-3.2743 1.5215-4.2871 0.77344-0.84113 3.052-0.67644 4.1328-0.7793 4.0264-0.38318 8.1413 0.32965 12.16-0.14453 11.272-1.33 23.211-1.3728 34.561-1.5078 5.9005-0.070178 12.441 0.43416 18.24-0.64258zm-424.65 0.17188c1.0645-7e-3 2.0868 0.12115 2.6192 0.66211 1.017 1.0334 1.2922 3.2576 1.6875 4.6074 0.97191 3.3189 2.0538 6.6137 3.0703 9.9199 2.923 9.5063 5.3853 19.218 6.4453 29.119 0.6325 5.9081 0.72215 11.898-2.0547 17.281-1.3525 2.6219-3.8123 8.6784-6.6504 9.877-1.5125 0.63873-3.6849-1.1759-4.7871-2.043-3.9286-3.0905-6.6849-7.5738-8.8809-11.994-4.3641-8.7849-5.3208-18.568-6.5703-28.16-1.2456-9.5615-2.7831-19.477-2.7891-29.121h15.041c0.69963 0 1.8046-0.14144 2.8691-0.14844zm-399.46 0.029297c2.7316-0.07808 5.3797 0.12695 6.752 1.2598 2.3023 1.9006 0.38689 7.0412-0.20703 9.4199-2.0766 8.3172-3.6975 18.585-10.92 24.15-2.1349 1.645-6.5032 4.2116-9.2793 4.1582-8.1241-0.15619-16.678-9.1928-22.4-14.094-3.3785-2.8934-8.6292-6.5377-10.443-10.695-1.6466-3.7735-0.75782-9.0919-0.75781-13.119 13.35 0 26.688-0.64062 40-0.64062 1.7082 0 4.5242-0.36137 7.2559-0.43945zm496.42 0.22266c3.7051 0.01338 7.3486 0.59828 9.2246 2.0742 3.0016 2.3615 4.6797 7.663 6.5488 10.943 4.2836 7.5178 8.6292 15.372 14.125 22.08 4.6762 5.7074 10.295 10.53 14.904 16.32 2.0085 2.5229 4.5397 5.3772 5.1211 8.6387-3.4256-1.6277-5.9996-4.7195-8.9609-7.0352-3.8553-3.0147-8.3302-5.4325-12.799-7.4082-3.393-1.5002-7.1589-3.0497-10.881-3.4219-5.1885-0.51881-10.38 0.98168-15.359 2.2266-8.8232 2.2058-17.527 4.8923-25.92 8.4141-11.163 4.6844-21.319 10.661-30.721 18.301-1.7902 1.4548-7.5114 7.9197-10.367 5.8633-1.4395-1.0366-0.0984-4.522 0.40234-5.7383 2.0913-5.0797 5.1114-9.839 8.1523-14.4 10.124-15.185 21.953-29.587 34.771-42.561 2.5056-2.5357 4.9658-5.2306 7.2129-8 1.4672-1.8083 2.6606-4.0647 4.9473-4.9395 2.1244-0.81267 5.8925-1.3708 9.5976-1.3574zm-457.76 0.14453c2.4949-0.09819 5.1774 0.19367 7.1992 1.4199 6.1985 3.7595 9.668 14.543 11.949 21.053 4.5704 13.042 9.1981 28.239 7.4785 42.24-0.692 5.6346-3.0759 10.972-5.5898 16-4.0048 8.0096-8.9162 15.297-18.639 16.266-10.896 1.0854-13.731-12.618-15.064-20.746-2.9744-18.126-2.0826-37.481-0.34961-55.68 0.43663-4.5852 0.64945-9.1835 1.2441-13.76 0.19547-1.5042 0.03402-4.0479 1.0312-5.2754 1.3805-1.6992 6.3224-1.0437 8.3398-1.3086 0.75858-0.0996 1.5688-0.17625 2.4004-0.20898zm499.04 0.072265c10.364 0 20.716-0.095623 31.039 0.61133 4.6826 0.32066 9.5565 0.19445 14.08 1.6289-1.4665 3.398-4.2733 6.2238-6.7031 8.9609-5.3967 6.0792-12.47 18.124-21.457 18.85-10.635 0.85898-20.764-9.9639-26.328-17.891-1.6081-2.2908-5.3083-7.173-4.5957-10.193 0.32926-1.3956 2.2978-1.2722 3.4043-1.416 3.4585-0.44941 7.0715-0.55078 10.561-0.55078zm-221.19 0.30469c1.3554-0.01615 2.7405 0.16994 3.9102 0.28125 4.574 0.43531 9.1828 0.11492 13.76 0.69336-0.72797 3.1727-3.6415 5.9516-5.7441 8.3203-4.8925 5.5118-10.182 11.017-16.016 15.545-2.8873 2.2412-7.468 5.8424-10.791 2.3066-3.3822-3.5988 1.303-10.786 3.2383-14.012 2.0296-3.3829 4.6041-10.028 7.9062-12.205 1.0552-0.69558 2.3809-0.91354 3.7363-0.92969zm419.91 0.33594c-0.83969 6.2354-4.5489 12.565-7.6836 17.92-0.72368 1.2362-2.3808 5.0312-4.1484 4.7812-1.8706-0.26451-3.1972-3.6404-3.9277-5.1016-2.7651-5.5302-3.6136-10.998-4.7207-16.961l20.48-0.63867zm-376.79 0.44141c1.5244-0.04103 3.2686 0.2438 4.3144 0.38281 1.2971 0.1724 4.2088-0.09535 5.123 0.96875 1.1192 1.3027 0.86758 4.5644 1.0918 6.207 0.87024 6.3751 1.1445 12.771 1.1445 19.199 0 2.7052 0.60187 8.9404-2.3652 10.521-2.8899 1.5399-7.5515-5.2096-8.8711-7.002-1.9961-2.7112-5.2679-6.3472-6.1992-9.5996-0.97531-3.4062 0.78964-9.0135 1.3574-12.48 0.30519-1.8636 0.37332-6.5575 2.0957-7.6699 0.55864-0.36078 1.394-0.50272 2.3086-0.52734zm496.47 0.16016c2.8677-0.1284 5.7345-0.19227 8.6406 0.037109 0.80383 4.2664 0.96093 8.7832 0.96093 13.121 1e-5 1.2048 0.45297 3.6026-0.32812 4.6074-0.61461 0.79064-2.2875 0.76146-3.1914 0.91211l-9.2812 1.5469c-9.9264 1.6882-19.108 5.3499-28.16 9.6543-2.7066 1.287-5.488 2.6604-8.3184 3.6484-0.87227 0.30451-2.2066 0.94965-3.0996 0.4082-1.5638-0.94812 0.0551-3.9217 0.54297-5.0977 2.0102-4.8447 4.987-9.1675 8.4062-13.119 3.1754-3.6698 6.6525-6.9092 10.15-10.254 1.4784-1.4137 2.9118-3.4528 4.7988-4.3281 2.6532-1.2307 7.3304-0.74469 10.24-0.7793 2.9031-0.03452 5.771-0.22902 8.6387-0.35742zm-239.19 0.22656c2.101-0.03268 4.1969 0.001099 6.2266 0.26758 0.99656 0.13084 2.7908-0.12188 3.6074 0.51367 0.99469 0.7741 0.86805 2.7188 0.87305 3.8301 0.0177 3.6661-0.45633 7.3152-1.3223 10.881-2.5683 10.575-8.3539 20.09-14.248 29.119-2.3429 3.5891-4.4736 7.5015-7.1621 10.846-1.1033 1.3725-2.8709 1.6365-4.4668 2.168-3.4316 1.1428-6.8877 2.1309-10.24 3.5-5.9188 2.4171-9.7509 7.0617-15.041 10.367-0.74813-3.1421-0.32031-6.7021-0.32031-9.9199 0-15.842 6.0545-30.446 13.514-44.16 2.6104-4.7995 6.3923-13.097 11.131-16.047 2.7694-1.7241 8.0229-1.2344 11.195-1.2344 2.0462 0 4.1529-0.09818 6.2539-0.13086zm-669.29 27.012c-0.29507-0.0108-0.60305 0.13497-0.9082 0.51367-1.077 1.3366-0.57785 4.029-0.43164 5.5664 0.38445 4.0426 0.55397 8.1095 0.95898 12.16 0.41588 4.1593 0.74771 8.3296 1.2441 12.48 0.18319 1.5317 0.016569 3.3889 0.73828 4.7988 1.9903 3.8881 6.932 7.0072 9.8574 10.24 8.002 8.8436 15.806 17.639 22.977 27.199 3.8232 5.0977 7.4647 10.5 11.959 15.041 2.8137 2.8428 5.8604 4.7984 9.5996 2.2226 2.6966-1.8576 6.1634-5.1608 7.3164-8.3027 2.7186-7.4084-1.4581-17.771-4.6777-24.32-5.2126-10.602-11.645-20.888-20.238-29.107-5.7138-5.4657-12.227-9.7069-18.561-14.375-5.0379-3.7133-10.8-10.324-16.959-11.877 0.62708 4.0639 7.1639 7.9716 10.238 10.352 5.1042 3.9512 11.084 7.1563 16 11.193 4.0897 3.3581 7.6315 7.631 10.943 11.734 4.5661 5.6574 8.6933 11.543 12.195 17.92 3.9474 7.1877 10.878 17.892 7.3027 26.24-1.1048 2.5795-3.8039 8.0854-7.4004 7.1387-2.2051-0.58049-4.1784-3.2198-5.5625-4.8984-3.6616-4.4408-6.9879-9.13-10.4-13.76-5.4431-7.3848-11.233-14.55-17.643-21.121-4.2161-4.322-10.052-8.5954-12.797-14.08-2.9157-5.8269-2.2268-13.231-2.9687-19.52-0.4376-3.7088-0.134-7.5299-0.96289-11.199-0.17369-0.76888-0.9351-2.2078-1.8203-2.2402zm383.58 0.99219c-0.21118-0.0012-0.39959 0.009003-0.54883 0.027343-4.6179 0.56894-9.2377 4.9659-12.799 7.6621-10.748 8.1375-19.933 18.292-29.439 27.799-6.4575 6.4574-12.834 12.988-19.205 19.52-4.8593 4.9813-10.079 9.8569-13.963 15.68-3.8401 5.7573-6.4046 12.415-8.7695 18.881-6.5717 17.968-9.2238 38.316-6.2949 57.279 1.4991 9.706 7.4981 18.777 14.312 25.6 21.867 21.894 54.156 21.361 81.92 13.031 9.8378-2.9516 19.893-6.7772 28.479-12.504 11.413-7.6123 17.097-23.893 20.049-36.688 7.8281-33.93 0.69802-70.49-17.104-100.16-5.5526-9.2546-11.594-17.929-19.264-25.6-2.5076-2.5078-5.3624-6.5062-8.9609-7.3594 0.92633 3.4006 5.0117 6.3963 7.3359 8.959 4.648 5.1248 8.7668 10.695 12.779 16.32 11.226 15.738 19.188 33.726 22.365 52.801 1.859 11.159 4.027 23.225 3.25 34.559-0.29859 4.3556-2.0455 8.4849-2.7148 12.801-2.0438 13.178-6.6989 27.407-15.869 37.439-7.5973 8.3114-20.427 12.803-30.986 15.816-26.039 7.4307-54.514 8.2714-76.16-10.375-3.7683-3.2461-7.4851-6.9213-10.092-11.201-5.3191-8.7334-6.5488-18.828-6.5488-28.799 0-15.6 2.7778-31.041 8.9121-45.441 8.4875-19.924 24.48-32.415 39.076-47.68 9.4812-9.9155 19.142-19.631 29.771-28.344 2.6874-2.2027 5.4652-4.4911 8.6406-5.9609 1.2165-0.5631 4.0568-0.52318 4.7852-1.6738 1.1624-1.8364-1.4788-2.38-2.957-2.3887zm533.27 0.85352c-0.9077-0.022043-1.8409 0.073916-2.6191 0.074219-4.6936 0.0018-9.5255 0.84922-14.08 1.9609-14.94 3.6467-29.713 11.115-40.641 22.039-3.4481 3.4468-9.2286 8.6657-8.9258 14.08 0.48984 8.7588 11.08 7.1033 16.605 5.5332 12.276-3.488 23.843-9.0138 36.16-12.438 3.5712-0.99268 7.2236-1.9431 10.881-2.5566 1.524-0.25566 4.1033-0.02838 5.3418-1.0176 0.44516-0.35556 0.75693-0.89853 0.97461-1.5508v-23.838c-0.23932-0.65242-0.62085-1.2315-1.2324-1.6562-0.675-0.46877-1.5572-0.60882-2.4648-0.63086zm-1.0918 2.834c0.94264-0.01534 1.8479 0.11764 2.2559 0.63281 0.85461 1.079 0.37696 3.6306 0.37696 4.9277 0 4.3676-0.0304 8.7845-0.54883 13.119-0.1675 1.4001 0.0649 3.2406-1.1484 4.248-1.4304 1.1876-3.6431 0.76383-5.3438 0.92578-3.5441 0.33752-7.1059 0.9641-10.559 1.8262-8.5606 2.1374-16.707 5.4099-24.961 8.4961-5.3967 2.0179-12.047 4.6797-17.92 3.9648-4.057-0.49383-4.1916-3.6561-2.4141-6.6602 2.6874-4.5417 7.407-8.256 11.375-11.654 13.172-11.281 29.35-17.25 46.398-19.57 0.56422-0.07681 1.5457-0.24052 2.4883-0.25586zm-351.63 19.885c-1.0311-0.01578-2.0876 0.03743-3.1738 0.16602-13.818 1.6358-29.492 6.5596-41.602 13.486-4.2392 2.4249-11.492 9.9893-5.7461 14.777 4.5238 3.7698 12.438 2.979 17.906 3.3535 14.041 0.96156 28.336-0.12265 42.24 2.6758 6.2609 1.2601 11.967 5.8068 16.961 9.5762 1.6511 1.2463 4.4451 5.1512 6.7012 4.8555 2.0758-0.27209 1.0853-3.4164 0.77735-4.6562-1.2378-4.9837-2.7766-9.8808-4.5-14.719-4.7752-13.405-14.098-29.279-29.564-29.516zm0.72657 3.8652c1.9736 0.05907 3.893 0.33797 5.6992 0.92969 4.2648 1.3972 7.309 4.608 9.957 8.0801 6.1677 8.087 13.197 20.357 14.043 30.721-4.7788-2.3804-7.9959-6.8305-13.121-8.957-13.948-5.7875-30.613-5.4044-45.439-5.7676-4.9556-0.12139-10.14-0.37891-15.039-1.1973-1.9875-0.33201-4.2854-0.8457-5.0684-2.959-1.2776-3.4485 3.249-6.4484 5.707-7.8633 3.7019-2.1308 7.6125-3.1838 11.52-4.7617 4.7239-1.9079 9.0968-4.002 14.08-5.2539 5.3285-1.3386 11.741-3.1479 17.662-2.9707zm142.49 10.066c-8.4252-0.08546-16.904 1.2726-25.107 4.1738-10.219 3.6138-20.368 10.497-26.992 19.09-1.514 1.9641-6.2026 7.3247-4.8144 10.1 0.76977 1.5388 7.0013-2.1491 8.4473-2.6328 8.7809-2.9376 18.065-4.8506 27.199-6.3184 24.187-3.8866 51.323 2.3981 72.32 14.996 5.349 3.2093 10.563 6.8848 15.359 10.875 2.0908 1.7394 4.058 4.7448 6.4004 5.9414 0.36523-3.4428-1.6048-6.9349-3.123-9.9219-3.6797-7.2392-8.0817-14.393-13.838-20.158-4.8724-4.8802-9.802-10.438-15.68-14.141-12.236-7.7078-26.13-11.861-40.172-12.004zm207.11 0.76562c-0.99062-0.03743-2.0238 0.09667-2.7793 0.18945-13.817 1.6969-27.886 7.642-40 14.209-9.4306 5.1124-18.726 10.906-25.312 19.619-9.1208 12.066-13.411 29.965-14.061 44.801-0.22874 5.2263-0.30664 10.434-0.30664 15.68 0 2.3028-0.46837 5.1967 0.43554 7.3594 2.1269 5.0886 5.337 11.064 9.1777 15.039 3.5159 3.6391 8.1627 6.1871 12.467 8.7695 7.3122 4.3872 14.829 8.5178 22.4 12.436 10.138 5.2457 20.486 10.308 30.4 15.965 2.5441 1.4515 7.6197 6.602 10.553 5.9258 2.9041-0.66953 1.9258-6.3691 1.9258-8.5332v-27.201c0-31.91-0.32031-63.768-0.32031-95.68 0-6.8664 0.39289-13.992-0.50391-20.801-0.27219-2.0664 0.0298-5.3316-1.5527-6.9375-0.58454-0.59319-1.5328-0.80241-2.5234-0.83984zm-211.39 2.7949c20.58-0.65882 41.507 8.6665 55.359 23.543 4.1663 4.4744 9.0371 9.3433 11.492 15.041-9.4321-4.4036-17.567-10.955-27.52-14.5-20.358-7.252-43.128-8.3866-64.32-4.5644-7.7534 1.3984-14.88 4.1296-22.4 6.2637 0.41773-3.1238 3.6513-5.5721 5.7598-7.6797 6.1004-6.098 13.45-10.757 21.441-13.953 6.5074-2.6026 13.328-3.9308 20.188-4.1504zm211.14 0.23047c0.46246 0.017049 0.85355 0.10637 1.1328 0.29492 1.6302 1.1007 1.1406 7.4294 1.1406 9.2578 5.4e-4 9.2981-0.32032 18.552-0.32032 27.84 0 38.282-0.64062 76.605-0.64062 114.88-3.6141-1.675-6.9498-4.4557-10.559-6.3184-16.723-8.6312-33.273-17.418-49.281-27.344-10.083-6.2522-19.585-15.281-20.146-28.1-0.81555-18.61 2.6021-42.015 14.033-57.279 8.5199-11.377 22.524-19.685 35.553-24.896 7.2712-2.9086 14.786-5.0153 22.4-6.8203 1.3429-0.31836 4.6835-1.5895 6.6875-1.5156zm-912.24 7.5332c-0.4382 0.02282-0.85926 0.11531-1.2539 0.29297-2.3808 1.0718-1.273 7.6213-1.3652 9.7266-0.063396 1.4478-0.6676 3.1012 0.021484 4.4805 0.89116 1.7837 2.9404 3.2052 4.4707 4.4121 4.3498 3.4304 11.648 9.8935 17.6 6.9883 4.1144-2.0084 6.5615-7.3119 3.584-11.389-3.4175-4.6793-10.171-8.2119-15.104-11.076-1.8404-1.0687-4.916-3.3105-7.5098-3.4355-0.14964-0.0072-0.29729-0.0076-0.44336 0zm1.2324 2.6602c5.874 2.5344 11.52 7.1732 16.32 11.336 1.7345 1.5041 4.3927 4.1396 2.6543 6.5488-2.3385 3.2409-7.4003 1.1693-10.014-0.50976-2.8223-1.8133-6.9492-4.257-8.3223-7.4551-1.2528-2.918-0.63867-6.8173-0.63867-9.9199zm168.13 0.68359c-0.29617 0.0041-0.56686 0.027298-0.76758 0.048828-3.1283 0.33553-6.2504 1.0454-9.2812 1.875-12.36 3.3833-24.171 9.4407-33.6 18.221-6.7917 6.3244-10.374 14.804-14.479 23.012-4.1327 8.2653-7.8766 17.487-7.9219 26.879-0.0603 12.512 0.34658 25.19 7.1758 36.16 10.987 17.649 36.777 31.489 57.785 30.051 12.041-0.82457 23.569-5.4353 34.24-10.771 9.9971-4.9992 20.142-11.248 26.648-20.559 10.069-14.41 12.704-34.066 12.711-51.201 2e-3 -5.5751 1.2753-11.567-0.78711-16.959-5.6586-14.793-19.574-25.422-34.092-30.51-6.4754-2.2693-13.056-4.0522-19.842-5.1426-2.2395-0.35986-5.5342-1.4078-7.6797-0.50781 6.727 3.5306 15.466 4.4717 22.721 6.7285 11.322 3.522 22.413 10.289 29.932 19.512 8.333 10.221 7.435 22.408 6.5762 34.879-1.0254 14.89-5.2202 32.042-14.896 43.842-9.7871 11.935-27.393 20.615-42.092 24.59-17.903 4.8417-35.799-0.0887-50.879-10.191-6.8635-4.5982-13.499-10.355-17.641-17.6-4.1262-7.2166-5.6674-16.101-6.0273-24.32-1.0019-22.877 10.872-49.28 30.066-62.391 7.4654-5.0994 17.088-9.6966 25.92-11.773 1.5237-0.35831 8.7601-0.19439 8.3457-2.8711-0.13271-0.85721-1.2482-1.0124-2.1367-1zm343.38 6.9082c-2.1596 0.0776-4.2072 0.39759-4.9453 1.3672 18.321 1.446 37.233 1.2795 55.359 4.6758 8.7458 1.6386 14.2 8.3501 18.986 15.484 8.0278 11.967 12.434 24.595 11.443 39.041-0.34758 5.0694-0.6436 10.354-2.8398 15.039-4.6004 9.8143-15.714 15.877-25.67 19.199-17.728 5.9151-36.591 7.1777-52.799-3.6328-6.1895-4.1284-11.915-9.9686-16.775-15.566-3.8257-4.4058-7.8639-8.7062-10.326-14.08-2.7738-6.0537-3.1344-12.965-3.2949-19.52-0.26687-10.895 1.1263-20.916 8.9688-29.121 2.0087-2.1016 4.1082-4.2822 6.707-5.6543 2.8933-1.5276 6.7848-1.7833 7.6797-5.5449-6.7495-1.5882-15.71 6.4238-19.518 11.199-7.1096 8.9162-8.142 21.031-7.3906 32 0.6118 8.9324 1.3408 16.351 6.5391 24 7.6088 11.196 18.214 22.497 30.289 28.871 10.449 5.5159 22.404 5.9346 33.92 4.7832 9.8072-0.98059 18.755-4.5496 27.521-8.9336 5.4722-2.7364 10.977-5.8547 14.578-10.959 4.748-6.7296 5.9004-15.327 5.9004-23.361 0-7.8715-0.32234-16.15-2.9043-23.68-2.0427-5.957-5.8036-11.553-9.4394-16.641-3.3015-4.6198-7.0795-10.131-11.975-13.18-2.4953-1.5541-5.79-1.8199-8.6406-2.2207-5.1149-0.71926-10.224-1.3818-15.359-1.9316-10.156-1.0873-20.181-1.5469-30.4-1.5469-1.1835 0-3.4556-0.16548-5.6152-0.08789zm177.18 17.092c-6.3056 0.33546-12.575 1.1651-18.609 2.7168-8.8632 2.2791-17.264 6.1214-24.639 11.555-2.6177 1.9285-6.0921 4.2676-7.7656 7.125-1.5344 2.6198 1.6333 2.0076 2.9648 1.1543 3.2857-2.1055 6.0453-5.0175 9.2793-7.2266 5.2028-3.5539 10.96-6.1508 16.961-8.0156 10.528-3.2717 21.358-4.1523 32.32-4.1523 15.9 0 32.612 2.0506 47.039 9.1992 9.2846 4.6006 19.098 10.99 23.883 20.561 2.9072 5.8143 3.0443 12.876 2.4121 19.199-1.9177 19.182-12.954 35.326-24.818 49.92-9.3986 11.561-18.66 21.184-33.156 25.811-16.326 5.2102-28.325-8.3336-37.891-19.73-10.284-12.253-21.705-25.285-28.902-39.68-6.5066-13.013-9.3672-27.8-9.3672-42.24-2.3265 1.422-1.9199 6.2304-1.9199 8.6406 0 8.8975 2.19 17.022 5.3047 25.279 8.0725 21.402 23.349 41.216 38.828 57.92 6.8838 7.4281 16.003 15.442 26.908 14.691 17.348-1.1947 29.914-12.739 40.682-25.25 13.981-16.245 25.742-33.245 27.852-55.041 0.69493-7.1806 0.99461-15.183-2.377-21.76-5.1977-10.139-14.311-16.281-24.236-21.199-13.224-6.5523-27.433-8.2384-41.92-9.2305-6.1831-0.42343-12.526-0.58155-18.832-0.24609zm-690.1 0.91211c-0.91065-0.0363-1.8275-0.03569-2.748 0.00391 0 18.257 0.64062 36.498 0.64062 54.719 0 11.954 0.96094 23.894 0.96094 35.842 0 10.126 0.8249 20.289 1.2676 30.398 0.11578 2.644-0.6117 8.7898 1.7383 10.605 2.7216 2.1028 9.2929-0.98421 12.033-2.0254 12.175-4.6261 20.559-10.531 27.064-22.02 9.0251-15.939 8.2547-32.191 7.8203-49.92-0.20631-8.4209 0.47557-17.712-3.0254-25.6-2.2057-4.9693-6.3059-9.3274-10.1-13.121-9.5057-9.5057-21.993-18.337-35.652-18.883zm3.0312 0.9707c3.3096-0.11765 9.0011 3.8678 11.182 5.1133 11.212 6.4042 24.657 15.931 29.42 28.48 3.1013 8.1707 1.6191 18.91 1.6191 27.52 0 8.9485 0.6043 18.344-0.7793 27.199-1.7949 11.487-9.3691 24.178-19.061 30.607-6.3046 4.1828-13.995 6.1555-21.119 8.4336 0-16.211-0.87931-32.459-1.5879-48.641-0.68117-15.556-0.57692-31.188-1.6406-46.721-0.5365-7.8344-0.93164-15.824-0.93164-23.68 0-2.1015-0.52821-6.7534 1.6426-7.9902 0.3584-0.2042 0.78306-0.30547 1.2559-0.32227zm496.88 74.811c-0.61362-0.0206-1.2348 0.0408-1.8633 0.19727-2.8793 0.71686-4.6652 3.8748-5.1445 6.5859-1.0438 5.9034 2.6245 11.541 5.5996 16.318 9.1276 14.655 19.326 28.685 28.152 43.521 2.8094 4.7225 5.4175 9.6188 8.1445 14.398 1.0224 1.7919 2.0248 4.9308 3.6562 6.207 2.2577 1.7662 8.8629 0.2838 11.432-0.3418 1.1986-0.29192 2.3108-0.76961 2.6973-2.0391 0.58997-1.938 0.24044-4.3545 0.54688-6.3848 0.45973-3.0461 1.4754-6.0765 2.5332-8.9609 5.1186-13.958 12.872-27.368 20.098-40.32 2.6568-4.7624 7.9327-11.141 4.1719-16.635-3.4191-4.9948-12.229-0.50435-16.607 0.95507-14.903 4.9677-32.543 2.0098-47.039-3.541-5.18-1.9835-10.445-9.7621-16.377-9.9609zm-0.58203 3.3809c1.3982 4e-3 2.8356 1.2463 3.8398 2.0117 3.5353 2.6945 6.8189 5.7627 10.879 7.6875 13.418 6.3612 30.62 8.4028 45.121 5.6055 4.3309-0.83543 8.5145-2.194 12.799-3.2207 1.1632-0.27869 3.6186-1.1508 4.4707 0.09766 0.71988 1.0547-0.0932 2.6812-0.50391 3.6992-1.3533 3.3545-2.934 6.675-4.5293 9.9199-6.2856 12.785-14.474 24.817-18.957 38.4-1.2325 3.7343-1.9263 7.65-2.5859 11.52-0.27121 1.591-0.54558 3.7745-2.248 4.4707-2.0475 0.83722-6.9907 1.4734-8.8203 0.04882-2.9816-2.3216-4.5256-8.8741-6.416-12.199-9.0712-15.956-20.163-30.703-29.07-46.719-2.5584-4.5998-6.391-9.3683-7.0879-14.721-0.28032-2.1531-0.0991-5.2938 2.1523-6.3867 0.31283-0.15184 0.63436-0.21583 0.95703-0.21484zm316.3 11.695c-0.88387-0.0222-1.7101 0.0256-2.3867 0.12305-7.6441 1.1015-14.1 8.3339-18.684 13.982-6.3479 7.8234-14.092 19.469-13.516 30.08 0.31563 5.8106 4.1039 12.321 6.9199 17.281 1.7341 3.0546 3.2434 6.4393 5.7734 8.9453 3.5216 3.4883 10.073 3.2128 14.707 3.2148 11.91 5e-3 25.03 2.4148 36.799 0.06055 7.7323-1.5468 1.7059-13.654-0.19141-18.301-4.8265-11.821-10.736-23.11-15.672-34.881-2.4087-5.7443-3.174-12.67-6.6856-17.902-1.2381-1.8449-4.4128-2.537-7.0644-2.6035zm-207.59 0.6875c-7.8828 0.15372-12.244 9.709-14.963 16.299-3.0093 7.2931-5.9778 14.272-5.4082 22.4 0.32137 4.5856 2.7915 9.0233 4.6719 13.119 3.0346 6.61 6.0336 13.559 9.6992 19.84 3.7244-0.88671 8.3238-0.52229 12.16-0.63477 1.6079-0.0471 4.5886 0.0892 5.8887-1.0098 1.0093-0.8532 1.1111-3.5168 1.4707-4.7559 1.0765-3.709 2.5623-7.4029 4.2441-10.879 2.1102-4.3613 4.3249-8.6513 6.8281-12.801 1.5889-2.6338 3.7292-5.1847 4.1914-8.3203 1.4668-9.952-9.9398-19.637-16.223-25.92-2.5422-2.542-5.4224-5.6873-8.9609-6.791-1.2753-0.39779-2.4735-0.56888-3.5996-0.54688zm209.36 1.2148c1.7994-0.0126 2.97 1.8541 3.7402 3.2441 2.0505 3.7006 3.2488 7.846 4.5801 11.84 4.5486 13.646 11.358 26.378 16 40 1.042 3.0581 2.1267 6.1442 2.9141 9.2793 0.21593 0.85978 0.84915 2.5195 0.26563 3.3281-0.5864 0.81269-2.9 0.74179-3.8184 0.80469-10.736 0.73519-22.947 0.92246-33.602-0.47656-3.7381-0.49082-7.6855 0.35865-10.504-2.7012-4.4523-4.8337-7.7877-11.54-10.23-17.594-1.1322-2.8056-2.2381-5.5539-1.9297-8.6406 0.8857-8.8629 7.1924-17.301 12.197-24.32 3.8656-5.4215 8.3534-9.4027 14.307-12.4 1.7766-0.89461 4.0248-2.3489 6.0801-2.3633zm-711.81 1.082c-0.3536-0.014-0.67145 0.0621-0.9414 0.25195-1.3047 0.91732-1.1679 3.4047-1.1699 4.7891-7e-3 4.3211 2e-3 8.5157 0.59961 12.801 1.8395 13.195 7.3 25.774 14.121 37.119 2.5674 4.2705 5.5 9.6834 9.5996 12.662 3.0838 2.2407 9.4942 1.0996 13.121 1.0996 10.533 0 21.12 0.31836 31.68 0.31836 3.0031 0 5.9738-0.27806 8.959-0.31836 1.2703-0.0172 3.2298 0.15699 4.293-0.69336 1.1615-0.92892 1.0816-4.0243 1.1484-5.3867 0.16373-3.3415 0.50998-6.8242 2.5352-9.6016 4.0767-5.5909 9.3575-10.377 13.502-16 3.7668-5.1106 6.3593-10.913 10.168-16 3.2308-4.3148 8.9417-8.9042 10.594-14.08-3.2451 0.57883-6.48 3.1212-9.2793 4.8008-5.3122 3.1872-10.683 6.2734-16.32 8.8613-17.54 8.0525-38.21 7.6309-56 0.92188-10.218-3.8534-19.668-9.4697-28.48-15.867-1.4501-1.0527-5.6537-5.5795-8.1289-5.6777zm502.94 1.8848c3.7884 0.1409 6.4775 2.6885 9.1856 5.3965 4.0491 4.0492 7.9516 8.3172 11.52 12.801 1.7747 2.2302 4.8896 5.5771 4.7324 8.6406-0.13754 2.68-1.8847 5.3436-3.0527 7.6797-2.1776 4.3553-4.3837 8.6899-6.4043 13.119-1.7328 3.7985-3.4966 7.7518-4.418 11.84-0.31754 1.409-0.33016 3.797-2.0742 4.1152-3.5781 0.65279-9.8186 1.5904-13.102-0.30273-3.4762-2.0046-4.7864-7.7727-6.4805-11.172-2.5207-5.0578-6.4773-10.978-7.1875-16.641-0.73195-5.8358 1.9356-13.197 4.0059-18.559 1.9807-5.1297 5.4286-15.94 11.582-16.824 0.58933-0.0847 1.1522-0.1139 1.6934-0.09375zm-148.97 0.88477c-0.39862 0.0211-0.79846 0.065-1.1992 0.13672-3.2878 0.58834-6.0515 3.7583-8.3203 5.9707-1.5323 1.4942-3.8126 2.8495-4.791 4.8047-1.5184 3.0342-0.64344 8.2101-0.64844 11.52-0.0127 7.8684-0.32029 15.785-0.32032 23.68 1e-5 4.9408-1.326 12.97 1.5898 17.268 2.4338 3.5871 9.9317 3.115 13.77 3.209 9.819 0.24055 19.602 0.64453 29.441 0.64453 4.0478 0 9.2021 0.8445 13.1-0.33984 2.2217-0.67512 0.82308-3.3314 0.20312-4.7812-2.0016-4.6809-4.386-9.2076-6.6621-13.76-6.6368-13.274-14.092-25.98-21.686-38.719-2.8405-4.7655-8.4973-9.9489-14.477-9.6328zm-352.88 0.99219c3.5314 0.89223 6.5124 3.9094 9.2793 6.1426 4.8052 3.8783 9.7494 7.7281 15.359 10.395 19.15 9.1019 39.815 11.702 60.48 6.5371 6.0107-1.5023 11.288-4.3952 16.961-6.7539-0.91045 3.1606-3.1048 5.9355-4.9082 8.6406-3.2411 4.8616-6.6987 9.6733-10.543 14.08-2.6565 3.0452-5.7466 5.8264-7.8887 9.2793-1.7934 2.8909-1.781 5.7092-2.1699 8.959-0.13402 1.12 0.11055 2.754-1.123 3.3281-3.363 1.5652-9.0952 0.51172-12.729 0.51172h-27.84c-4.1962 0-9.1294 0.81631-12.799-1.6328-4.4266-2.9545-6.2406-8.3918-8.834-12.766-6.1914-10.442-10.404-20.955-12.418-32.961-0.72636-4.3299-1.8618-9.4181-0.82812-13.76zm-23.523 0.00195c-0.53975-0.028-1.1256 6e-4 -1.7578 0.09375-5.9252 0.87324-9.7552 7.1838-12.236 12.064-5.8723 11.551-10.679 23.636-16.502 35.199-2.0317 4.0343-4.5964 7.4086-5.8652 11.84-0.38068 1.3295-1.1781 3.6798-0.26758 4.957 0.70902 0.99461 2.7308 1.0627 3.832 1.1113 3.5202 0.15543 7.3756 0.33349 10.879-0.04296 5.3312-0.57284 9.0191-6.0992 12.248-9.8652 9.3005-10.848 14.949-21.118 15.58-35.52 0.26519-6.0556 2.1861-19.419-5.9102-19.838zm698.12 0.1875c-0.09978 1e-3 -0.20816 0.01648-0.32617 0.05078-1.3941 0.40496-2.5146 4.0446-3.3945 5.1992-2.6873 3.526-6.0684 7.0473-9.7598 9.5293-9.1117 6.1264-18.128 13.268-27.84 18.533-11.338 6.1465-26.119 10.704-39.039 11.59-13.187 0.90384-26.944-4.5692-38.08-11.236-4.1784-2.5016-13.215-6.0634-17.602-2.4238-7.1972 5.9713-14.917 17.035-16.049 26.488-0.33988 2.8389-1.113 8.6697 1.6856 10.557 2.2301 1.5037 5.7363 1.138 8.2852 1.3125 7.3872 0.50591 14.697-0.0293 22.078-0.0293 18.67 0 37.344-1.1893 56-1.2793 6.5301-0.0315 13.011-0.34188 19.521-0.62695 5.7734-0.25282 12.104-4e-3 17.6-2.0703 4.5073-1.6943 6.3541-4.0935 9.3887-7.4883 10.29-11.512 10.14-26.002 14.824-40.055 1.4932-4.4796 3.1188-9.0432 3.6426-13.76 0.088-0.79207 0.56148-4.3066-0.93555-4.291zm-321.32 0.45117c6.8172 0.16027 11.556 8.5813 14.445 13.76 6.3658 11.411 12.583 22.792 18.277 34.561 2.1416 4.4262 4.7297 8.7738 6.3184 13.439-3.367 0.99523-7.6956 0.32031-11.201 0.32031-8.9362 0-17.989-0.38002-26.879-1.2266-2.6905-0.25622-10.016 0.51176-11.812-1.793-1.9891-2.5515-1.0947-7.7124-1.4922-10.74-1.1225-8.5499-0.11148-18.004 0.47461-26.561 0.24411-3.5638-0.42833-7.7329 0.45117-11.199 0.68882-2.715 5.6452-6.1716 7.8984-7.7051 1.4061-0.95696 2.9927-1.0809 3.5195-2.8555zm-211.23 2.1973c-0.39748 0.0217-0.81476 0.0698-1.252 0.14648-4.2363 0.74282-8.61 4.6384-11.518 7.5762-8.9226 9.0154-16.03 23.769-9.6719 35.84 2.6407 5.0139 5.8852 10.033 9.498 14.4 0.98445 1.19 3.1527 3.7864 4.959 3.291 1.3188-0.36172 1.9654-2.1598 2.4277-3.291 1.3982-3.4206 2.4284-7.0093 3.4375-10.561 3.386-11.917 7.1998-24.526 8.9102-36.801 0.73645-5.2855-0.82881-10.928-6.791-10.602zm-166.05 0.75195c0.63226-9e-3 1.2486 0.15599 1.8145 0.57227 1.5453 1.1368 1.6862 3.6886 1.707 5.4375 0.05475 4.602-0.28246 9.2024-0.91602 13.76-1.6382 11.784-7.3661 20.845-14.996 29.76-2.1227 2.4802-4.6263 6.7244-7.5 8.3125-1.1319 0.62551-2.8577 0.32812-4.1055 0.32812-3.2242 0-7.1417 0.59557-10.24-0.32031 2.289-7.9456 7.7491-15.654 11.441-23.039 2.678-5.356 5.4796-10.643 8.1582-16 2.707-5.4139 5.1762-11.663 9.5254-15.996 1.1826-1.1782 3.2146-2.7862 5.1113-2.8144zm167.31 1.584c0.23622-4e-3 0.46841 0.01405 0.69531 0.06055 5.2011 1.0652 2.009 9.9807 1.1465 13.006-3.9142 13.729-7.29 27.711-11.705 41.279-2.7342-1.3363-4.1318-5.5277-5.7617-8-2.3059-3.4977-5.0064-7.0898-6.1035-11.199-2.1368-8.0036 3.0492-16.44 7.002-23.041 2.5972-4.3371 5.7215-7.3461 9.9824-10.098 1.2605-0.81403 3.0906-1.9785 4.7441-2.0078zm241.51 0.29883c-0.67116 0.0256-1.3547 0.26977-2.0254 0.81641-1.7177 1.4-1.4918 4.2028-1.293 6.1914 0.54664 5.467 3.0445 10.949 5.0644 16 3.4306 8.5778 7.2573 16.995 10.621 25.6 1.1979 3.0642 4.0184 9.244 7.0098 10.871 1.2158 0.66131 3.1108 0.32812 4.4492 0.32812 3.7639 0 7.4855 0.0512 11.201-0.63867-0.53598-3.1127-2.4585-5.8895-3.9102-8.6406-2.6749-5.0694-5.3677-10.161-8.3867-15.039-3.3075-5.3437-6.0932-11.022-8.9023-16.641-2.6962-5.3923-5.4438-11.256-9.2051-15.998-1.0812-1.3631-2.6589-2.759-4.3359-2.8476-0.0953-5e-3 -0.19123-0.00596-0.2871-0.00196zm360.82 0.14649c-0.33889 0.0143-0.67267 0.0593-0.99804 0.14062l5.4414 4.5391 8.8242 9.2207 19.096 24.961 16.24 17.279c-9.6058 0-19.208-0.94358-28.801-0.95898-2.7845-4e-3 -8.7854 0.70986-10.676-1.6348-4.0205-4.9865-6.6005-12.405-9.2637-18.205-3.0281-6.5949-7.4939-13.145-8.4473-20.48-0.74368-5.7222 2.1521-7.2858 5.1641-11.52 0.65-0.91367 1.2241-2.7082-0.47656-2.7988-1.6356-0.0871-3.0768 1.4448-4.1406 2.4824-3.428 3.3436-4.944 7.3132-4.4238 12.156 1.0776 10.033 8.2569 20.469 12.494 29.439 1.9397 4.1064 3.2247 9.4625 5.998 13.072 2.0443 2.6609 8.5562 1.3872 11.531 1.7383 7.0082 0.82689 14.381 0.22851 21.439 0.22851 5.3105 0 11.123 0.59865 16.32-0.63867-0.60469-2.1759-2.5778-3.7742-4.0234-5.4414-3.4266-3.9519-7.0705-7.7395-10.684-11.52-9.5849-10.028-17.798-21.191-26.445-32-2.6534-3.3166-9.0865-10.275-14.17-10.061zm-424.88 0.14062c-0.12151-2e-3 -0.2447 6e-4 -0.36719 0.00781-0.58793 0.0337-1.1781 0.15962-1.6719 0.28907-3.554 0.93168-7.0242 2.8632-10.238 4.6016-14.147 7.6513-28.606 16.115-44.801 18.326-10.623 1.4501-22.019 1.0997-32.32-2.0684-5.1322-1.5784-10.048-4.2475-15.039-6.2441-4.766-1.9065-9.531-3.8963-14.4-5.5254-1.2741-0.42623-3.7228-1.7789-5.0195-0.99609-2.3384 1.4116 1.4687 5.8078 2.4336 6.9688 5.3504 6.4379 10.983 12.708 15.867 19.521 4.6057 6.4258 8.5218 16.356 15.838 20.346 4.6454 2.5336 10.96 0.9891 16 1.4688 14.933 1.4211 30.428 0.58594 45.441 0.58594 1.0124-5.2206 2.3487-10.582 4.7383-15.361 4.6276-9.2552 12.207-16.896 18.553-24.959 2.5656-3.2599 9.9904-11.262 7.1035-15.953-0.46203-0.75074-1.2666-0.99579-2.1172-1.0078zm-1.0781 3.5195c-1.249 4.2448-5.2398 8.1002-7.9336 11.521-5.7361 7.2854-12.005 14.369-16.703 22.398-1.5165 2.5921-2.8802 5.35-3.4394 8.3203-0.36105 1.9178-0.44477 5.1497-2.1309 6.4453-2.8875 2.2187-10.463 1.2344-13.953 1.2344-10.672 0-21.316 0.32032-32 0.32032-3.2362 0-9.5928 1.225-12.449-0.32813-1.3571-0.73791-2.267-2.6088-3.1387-3.832-2.3068-3.2373-4.5193-6.5508-6.6289-9.9199-3.8154-6.0934-8.1209-11.979-12.6-17.6-2.4403-3.0626-5.4813-5.87-7.4238-9.2793 11.125 1.6429 21.577 9.145 32.32 12.471 10.607 3.2834 24.683 2.3312 35.52 0.50976 11.413-1.9183 23.844-7.3509 33.92-12.936 5.008-2.7758 11.029-8.3259 16.641-9.3262zm351.68 0.64063c-0.7818 5.2192-3.8527 10.222-5.2051 15.359-1.1045 4.196-1.116 8.5822-2.1172 12.801-2.0143 8.4875-8.1307 19.182-16.037 23.426-5.5797 2.9947-12.485 2.1074-18.561 2.5234-16.544 1.1329-33.422-0.58564-49.92 0.98438-13.425 1.2776-27.468 0.90625-40.961 0.90625-3.0965 0-11.821 1.2797-12.936-2.5606-0.63273-2.1801 0.40313-4.9808 1.0977-7.0391 2.0786-6.1597 5.681-11.791 9.5586-16.961 1.7254-2.3003 3.7258-5.1116 6.7598-5.6543 5.7705-1.0323 12.082 4.0955 16.961 6.5352 9.3121 4.6561 19.484 8.7764 30.08 8.0508 13.049-0.89356 26.867-3.6 38.719-9.334 9.4769-4.5849 18.238-11.366 27.201-16.898 5.4081-3.338 9.6449-9.5918 15.359-12.139zm-502.28 0.28125c-0.55022-0.0165-1.1233 0.0349-1.7207 0.16406-4.0646 0.87895-6.1969 5.7654-7.7539 9.1543-4.3765 9.5259-7.2225 20.623-10.029 30.721-0.9086 3.2687-1.5962 6.5312-1.75 9.9199-0.0421 0.92642-0.61367 2.4765 0.02343 3.2832 0.73695 0.93305 2.7859 0.52523 3.8301 0.64844 4.1306 0.48733 8.3191 0.54883 12.48 0.54883 11.411 0 22.813 0.32031 34.24 0.32031 5.0281 0 11.829 0.77243 16.625-0.82031 2.0895-0.69398 1.597-3.0176 0.90625-4.6211-1.5277-3.5467-4.8052-6.7532-7.3457-9.5996-5.5808-6.2526-11.299-12.313-17.227-18.24-3.702-3.702-7.7809-7.0197-10.982-11.199-2.7773-3.6256-5.978-10.119-11.297-10.279zm215.24 0.03906c3.6059 0.15373 5.5127 6.5902 7.0391 9.2793 5.7667 10.16 10.73 20.681 17.252 30.4 1.8674 2.7831 3.4912 5.7306 5.1484 8.6406 0.46813 0.82199 1.5941 2.3592 0.9375 3.332-0.66762 0.9891-2.794 0.82313-3.8184 0.82813-5.4139 0.0261-7.4114-2.8466-9.9062-7.3613-3.217-5.8215-5.046-13.008-7.5664-19.199-3.4022-8.3572-7.9157-16.857-9.0859-25.92zm-214.44 2.4141c1.2728 0.0374 2.2896 1.086 3.1406 2.0664 2.513 2.8951 4.2672 6.3632 6.7734 9.2793 3.3587 3.9081 7.6333 6.6238 11.139 10.332 4.2647 4.5115 7.9681 9.8885 12.031 14.629 2.953 3.4453 7.2444 7.2239 8.873 11.52-8.3676 1.5544-16.583 0.52947-24.961 0.32422-11.824-0.29008-23.691-0.0039-35.52-0.0039 2.2813-12.281 5.3825-24.692 9.7031-36.48 1.4086-3.8431 3.6463-10.034 7.8965-11.518 0.3221-0.11244 0.63009-0.15744 0.92383-0.14844zm-223.23 3.3867c-0.15752-9e-3 -0.32217-0.00805-0.49414 0.00195-0.17752 0.0102-0.36315 0.0312-0.55664 0.0625-5.0938 0.82412-9.8893 5.759-13.76 8.8555-6.7112 5.3692-13.739 10.286-21.76 13.504-3.7842 1.5184-7.6544 2.8067-11.521 4.0957-1.2587 0.41955-3.6193 0.73703-4.4746 1.8242-1.4932 1.8979-0.96302 7.6582-0.96484 10.016-0.0019498 2.5342-1.6732 8.9795 0.23828 10.967 1.4908 1.5498 6.3706 1.0907 8.4023 1.1797 8.0858 0.35406 18.344 0.78895 26.24-1.0723 3.4138-0.80472 4.5412-6.1398 6.0801-8.834 5.1061-8.9395 11.93-18.151 14.67-28.16 0.84926-3.1026 2.7835-12.164-2.0996-12.439zm-0.41016 3.7988c-0.09276 11.205-8.7497 21.501-13.52 31.041-1.2633 2.5266-3.17 9.3377-5.7148 10.561-3.0782 1.4792-7.528 0.82539-10.846 0.97071-7.038 0.30817-14.063 0.6289-21.121 0.6289 0.03075-3.7148 0.35606-7.4944 0.61133-11.201 0.11153-1.6195-0.14179-3.6339 0.95312-4.9941 1.1456-1.4232 3.4972-1.7971 5.1562-2.2734 3.9216-1.1259 7.7492-1.9967 11.52-3.6133 6.7091-2.8765 12.876-6.779 18.561-11.326 4.2019-3.3613 9.1483-8.248 14.4-9.793zm842.57 3.0449c-0.67876 0.0302-1.3221 0.12416-1.918 0.29492-3.5574 1.0194-4.4962 7.3755-4.4922 10.42 5e-3 3.6975 2.0946 6.4583 4.2949 9.2812 3.8739 4.9702 8.2126 9.6286 12.664 14.08 1.908 1.908 6.0118 7.1423 9.2617 5.8848 1.5861-0.61371 1.5217-2.5627 1.6719-3.9648 0.4093-3.8214 0.26563-7.6772 0.26563-11.521 0-5.2233 0.81188-12.189-1.8144-16.947-1.0039-1.8188-3.0905-2.5084-4.9043-3.2559-3.8088-1.5696-10.278-4.4828-15.029-4.2715zm1.5684 3.8633c2.0344-0.0489 4.5266 0.9582 6.1016 1.4121 2.7441 0.79082 7.8134 1.6378 9.6836 3.9648 1.0004 1.2448 0.80007 3.1884 0.9043 4.6758 0.225 3.2108 0.29101 6.3726 0.29101 9.5996 0 2.1091 1.1131 9.3618-1.0566 10.533-2.1701 1.1716-5.6801-4.0894-6.8086-5.4141-4.1456-4.8659-10.385-10.127-12.447-16.32-0.74445-2.2356-0.89445-6.5769 1.5-7.9902 0.52578-0.31035 1.1539-0.44464 1.832-0.46094zm-469.9 8.6738c-0.70697 9e-3 -1.4037 0.0779-2.0781 0.20703-2.2847 0.43763-4.3465 2.2636-6.0801 3.7051-4.4772 3.7226-9.626 8.4794-11.617 14.105-0.77345 2.1852-1.8255 6.5892-0.05859 8.543 1.3061 1.4442 4.4382 1.2886 6.2344 1.3887 5.101 0.28402 10.63 0.94647 15.68-0.15625 3.794-0.82851 5.0786-5.2916 6.3359-8.4941 1.2952-3.299 3.0107-7.5972 2.5664-11.201-0.65345-5.3008-6.0336-8.1585-10.982-8.0977zm147.83 0.8457c-0.25954-7e-3 -0.52185-0.00302-0.78711 0.01368-8.2879 0.50947-14.923 13.296-16.504 20.359-0.48591 2.1708-1.8881 7.0238-0.03516 8.8203 1.8335 1.7776 7.7275 0.87122 10.139 0.76563 5.7002-0.24959 11.637-0.57316 17.281-1.4551 1.8698-0.29217 4.6192-0.44961 5.8418-2.1191 1.6261-2.2205 0.0672-6.2732-0.63281-8.5723-1.9733-6.4813-7.2573-17.598-15.303-17.812zm-146.49 3.0195c8.2344-0.29625 4.0599 12.372 1.7734 16.713-0.94972 1.803-2.0566 3.9232-4.2305 4.3691-3.968 0.81397-9.09-0.2744-13.119-0.5586-1.2678-0.0894-3.3487-0.27888-3.918-1.6387-0.76508-1.8275 1.2641-4.886 2.2363-6.332 3.3062-4.9172 9.4228-11.033 15.441-12.314 0.66349-0.14129 1.2674-0.21851 1.8164-0.23828zm-217.11 1.2324c-0.84217-6e-3 -1.7166 0.11193-2.625 0.37304-6.518 1.8734-12.695 11.374-14.191 17.668-0.48381 2.0347-1.342 5.8463 0.27539 7.5781 1.6594 1.7768 7.4708 0.74221 9.7559 0.74218 9.3132 0 18.561-0.44912 27.84-0.64062-0.69696-2.9328-2.6242-5.4506-4.1602-8-3.6304-6.0256-8.7535-17.664-16.895-17.721zm363.27 0.47265c2.2217 0.0882 4.4514 1.7489 5.9394 3.1816 4.5885 4.418 7.4979 11.252 8.002 17.586-7.0056 0.14459-13.746 1.6851-20.801 1.0137-1.9181-0.18254-5.7055 0.3426-7.1543-1.2461-1.101-1.2074 0.56718-4.2962 1.0781-5.5273 1.999-4.8169 6.0411-12.158 10.877-14.574 0.52772-0.26366 1.0694-0.39779 1.6152-0.42969 0.14783-9e-3 0.29525-0.00991 0.44336-0.00391zm-479.54 0.2168c-1.592 0.0744-3.1236 0.52207-4.4355 1.5215-5.1582 3.9293-8.1447 10.392-10.781 16.15-0.71314 1.5575-2.5549 4.9922-1.1855 6.5801 1.5369 1.7822 7.2348 0.7793 9.4062 0.7793 9.4129 0 18.773-1.2016 28.16-1.2793-0.0712-8.597-5.8638-18.05-13.439-21.838-2.2501-1.1251-5.0713-2.0381-7.7246-1.9141zm117.26 2.1152c0.29657-3e-3 0.58684 0.0322 0.86719 0.11329 1.9971 0.57762 3.524 2.6764 4.7266 4.2422 3.304 4.3017 6.3313 9.2485 8.0742 14.4-8.642 2.0814-18.754 1.0121-27.52 0.32032 0-6.3286 3.124-12.007 8-16.025 1.3956-1.1501 3.7756-3.0325 5.8516-3.0508zm-115.72 2.0371c7.5942 0.11358 13.524 9.2459 15.146 16.078l-31.359 1.6016c1.6391-5.6896 6.223-14.243 11.84-16.744 1.5038-0.66949 2.9667-0.95655 4.373-0.93555zm680.84 3.418c-0.13612 1e-4 -0.27344 0.01492-0.41406 0.04492-1.3316 0.2844-2.3858 1.5918-3.0469 2.6953-0.72265 1.2062-0.93133 2.6099-1.5996 3.8398-1.4491 2.6669-4.7037 5.928-2.9766 9.2754 1.93 3.7403 9.048 3.212 12.422 2.4277 7.7095-1.792 2.6219-9.2398 0.04493-13.623-0.85738-1.4583-2.3879-4.6612-4.4297-4.6602zm-0.73438 4.0215h0.63868c1.0009 1.8806 5.0439 6.9999 3.8184 9.1894-0.86054 1.5375-7.726 2.283-8.3652 0.30859-0.7782-2.4039 2.9948-7.3041 3.9082-9.498zm-779.94 22.969c-1.2157-0.00877-2.4285 0.03514-3.6035 0.24804v1.8086l15.225 0.57422 20.799 0.32031 62.4 0.32031h196.8l459.84-0.00195 163.52-0.95899v-0.32031c-8.7758-1.6292-18.907-0.64062-27.84-0.64062-15.48 0-30.915-0.31836-46.4-0.31836-47.14 0-94.281-0.32032-141.44-0.32032-145.26 0-290.56-0.64062-435.84-0.64062h-188.16-55.359-16.32c-1.1861 0-2.4054-0.06155-3.6211-0.07031zm-3.6035 3.3828v0.00781h925.54v-0.00781h-925.54z" fill="#cf0075"/>
 </g>
</svg>
